# xmcd CD database file
#
# Track frame offsets:
#	150
#	19557
#	33960
#	48210
#	62225
#	77060
#	89477
#	105705
#	136670
#	148942
#
# Disc length: 2175 seconds
#
# Revision: 0
# Processed by: cddbd v1.5.1PL2 Copyright (c) Steve Scherf et al.
# Submitted via: CDex 1.51
#
DISCID=7e087d0a
DTITLE=真梨邑ケイ - 恋という名のカクテル
DYEAR=1995
DGENRE=Jazz
TTITLE0=AS TIME GOES BY
TTITLE1=KISS
TTITLE2=LOVE LETTER
TTITLE3=THE MAN I LOVE
TTITLE4=WHERE OR WHEN
TTITLE5=THE VERY THOUGHT OF YOU
TTITLE6=AFTER YOU'VE GONE
TTITLE7=LUNA DE MONTE CARLO
TTITLE8=IT'S BEEN A LONG LONG TIME
TTITLE9=SMOKE GETS IN YOUR EYES
EXTD=YEAR: 1995
EXTT0=
EXTT1=
EXTT2=
EXTT3=
EXTT4=
EXTT5=
EXTT6=
EXTT7=
EXTT8=
EXTT9=
PLAYORDER=
